# xmcd
#
# Track frame offsets: 
#        150
#        2038
#        14004
#        25443
#        40129
#        52944
#        69005
#        84292
#        96535
#
# Disc length: 1706 seconds
#
# Revision: 0
# Processed by: cddbd v1.5.2PL0 Copyright (c) Steve Scherf et al.
# Submitted via: ExactAudioCopy v1.3
#
DISCID=6606a809
DTITLE=The Bluesanovas - Emergency Call For The Blues
DYEAR=2019
DGENRE=Blues Rock
TTITLE0=Emergency Call
TTITLE1=Lucky Man
TTITLE2=Solitude Blues
TTITLE3=Trash Talking Woman
TTITLE4=Just The Tip
TTITLE5=Heal Me, Baby
TTITLE6=One More Ale
TTITLE7=Heads Up
TTITLE8=Devil's Mule
EXTD=
EXTT0=
EXTT1=
EXTT2=
EXTT3=
EXTT4=
EXTT5=
EXTT6=
EXTT7=
EXTT8=
PLAYORDER=
